<svg aria-hidden="true" style="position: absolute; width: 0; height: 0; overflow: hidden;" version="1.1" xmlns="http://www.w3.org/2000/svg" xmlns:xlink="http://www.w3.org/1999/xlink">
<defs>
<symbol id="icon-check-mark" viewBox="0 0 31 32">
<path fill="#e6533c" style="fill: var(--color1, #e6533c)" d="M11.61 1.088l3.574 1.033c0.258 0.075 0.532 0.075 0.791 0.002l3.68-1.048c0.644-0.183 1.329 0.103 1.651 0.691l1.91 3.487c0.128 0.234 0.319 0.428 0.551 0.559l3.037 1.72c0.587 0.333 0.863 1.030 0.662 1.675l-1.052 3.374c-0.086 0.277-0.087 0.573-0.001 0.85l1.062 3.445c0.196 0.637-0.072 1.325-0.647 1.661l-3.385 1.979c-0.231 0.135-0.42 0.332-0.544 0.569l-1.61 3.050c-0.312 0.59-0.989 0.888-1.634 0.717l-3.705-0.978c-0.242-0.064-0.496-0.063-0.737 0.001l-3.592 0.963c-0.66 0.177-1.354-0.136-1.657-0.749l-1.605-3.243c-0.135-0.272-0.352-0.495-0.622-0.635l-3.28-1.712c-0.599-0.313-0.898-1.001-0.719-1.653l0.956-3.465c0.068-0.245 0.069-0.504 0.003-0.75l-0.981-3.69c-0.169-0.635 0.115-1.303 0.689-1.622l3.369-1.874c0.245-0.136 0.445-0.341 0.574-0.59l1.592-3.053c0.316-0.605 1.014-0.904 1.67-0.715z"></path>
<path fill="none" stroke="#000" style="stroke: var(--color2, #000)" stroke-linejoin="miter" stroke-linecap="butt" stroke-miterlimit="4" stroke-width="0.7619" d="M11.61 1.088l3.574 1.033c0.258 0.075 0.532 0.075 0.791 0.002l3.68-1.048c0.644-0.183 1.329 0.103 1.651 0.691l1.91 3.487c0.128 0.234 0.319 0.428 0.551 0.559l3.037 1.72c0.587 0.333 0.863 1.030 0.662 1.675l-1.052 3.374c-0.086 0.277-0.087 0.573-0.001 0.85l1.062 3.445c0.196 0.637-0.072 1.325-0.647 1.661l-3.385 1.979c-0.231 0.135-0.42 0.332-0.544 0.569l-1.61 3.050c-0.312 0.59-0.989 0.888-1.634 0.717l-3.705-0.978c-0.242-0.064-0.496-0.063-0.737 0.001l-3.592 0.963c-0.66 0.177-1.354-0.136-1.657-0.749l-1.605-3.243c-0.135-0.272-0.352-0.495-0.622-0.635l-3.28-1.712c-0.599-0.313-0.898-1.001-0.719-1.653l0.956-3.465c0.068-0.245 0.069-0.504 0.003-0.75l-0.981-3.69c-0.169-0.635 0.115-1.303 0.689-1.622l3.369-1.874c0.245-0.136 0.445-0.341 0.574-0.59l1.592-3.053c0.316-0.605 1.014-0.904 1.67-0.715z"></path>
<path fill="none" stroke="#efede8" style="stroke: var(--color3, #efede8)" stroke-linejoin="round" stroke-linecap="round" stroke-miterlimit="4" stroke-width="1.5238" d="M15.619 8.952v8"></path>
<path fill="none" stroke="#efede8" style="stroke: var(--color3, #efede8)" stroke-linejoin="round" stroke-linecap="round" stroke-miterlimit="4" stroke-width="1.5238" d="M11.619 12.952h8"></path>
</symbol>
</defs>
</svg>
