<svg xmlns="http://www.w3.org/2000/svg" aria-hidden="true" style="position:absolute;width:0;height:0;overflow:hidden"><defs><symbol id="icon-user" fill="none" viewBox="0 0 16 16"><path fill="#EFEDE8" fill-opacity=".1" d="M8 0a4 4 0 1 1 0 8 4 4 0 0 1 0-8Zm0 16s8 0 8-2c0-2.4-3.9-5-8-5s-8 2.6-8 5c0 2 8 2 8 2Z"/></symbol><symbol id="icon-big-user" fill="none" viewBox="0 0 103 102"><path fill="#EFEDE8" fill-opacity=".1" d="M51.5 17a17 17 0 1 1 0 34 17 17 0 0 1 0-34Zm0 68s34 0 34-8.5c0-10.2-16.575-21.25-34-21.25s-34 11.05-34 21.25c0 8.5 34 8.5 34 8.5Z"/></symbol><symbol id="icon-close-white" viewBox="0 0 32 32"><path fill="none" stroke="#efede8" stroke-linecap="round" stroke-linejoin="round" stroke-width="4.571" d="M29.714 2.286 2.285 29.715m.001-27.429 27.429 27.429" style="stroke:var(--color1, #efede8)"/></symbol><symbol id="icon-logo-white" viewBox="0 0 83 32"><path fill="#efede8" d="M80.941 13.714c1.04 0 1.882.843 1.882 1.882v.807c0 1.04-.843 1.882-1.882 1.882H78.79a1.883 1.883 0 0 0-1.882 1.882v5.378c0 1.04-.843 1.882-1.882 1.882h-2.151c-1.04 0-1.882.843-1.882 1.882v.807c0 1.04-.843 1.882-1.882 1.882h-5.109a1.882 1.882 0 0 1-1.882-1.882v-9.95c0-1.04-.843-1.882-1.882-1.882H22.591c-1.04 0-1.882.843-1.882 1.882v9.95c0 1.04-.843 1.882-1.882 1.882h-5.109a1.882 1.882 0 0 1-1.882-1.882v-.807c0-1.04-.843-1.882-1.882-1.882H7.803a1.882 1.882 0 0 1-1.882-1.882v-5.378c0-1.04-.843-1.882-1.882-1.882H1.888a1.882 1.882 0 0 1-1.882-1.882v-.807c0-1.04.843-1.882 1.882-1.882h2.151c1.04 0 1.882-.843 1.882-1.882V6.454c0-1.04.843-1.882 1.882-1.882h2.151c1.04 0 1.882-.843 1.882-1.882v-.807c0-1.04.843-1.882 1.882-1.882h5.109c1.04 0 1.882.843 1.882 1.882v9.95c0 1.04.843 1.882 1.882 1.882h37.647c1.04 0 1.882-.843 1.882-1.882v-9.95c0-1.04.843-1.882 1.882-1.882h5.109c1.04 0 1.882.843 1.882 1.882v.807c0 1.04.843 1.882 1.882 1.882h2.151c1.04 0 1.882.843 1.882 1.882v5.378c0 1.04.843 1.882 1.882 1.882h2.151z" style="fill:var(--color1, #efede8)"/></symbol><symbol id="icon-menu" viewBox="0 0 32 32"><path fill="none" stroke="#e6533c" stroke-linecap="round" stroke-linejoin="round" stroke-width="2.667" d="M4 16h16M4 8h24M4 24h24" style="stroke:var(--color2, #e6533c)"/></symbol><symbol id="icon-chevron-down" viewBox="0 0 32 32"><path fill="none" stroke="#efede8" stroke-linecap="round" stroke-linejoin="round" stroke-width="3.556" d="m8 12 8 8 8-8" style="stroke:var(--color1, #efede8)"/></symbol><symbol id="icon-eye-off" viewBox="0 0 32 32"><path fill="none" stroke="#efede8" stroke-linecap="round" stroke-linejoin="round" stroke-width="2.88" d="M23.92 23.92A13.43 13.43 0 0 1 16 26.667C6.667 26.667 1.333 16 1.333 16A24.605 24.605 0 0 1 8.08 8.08m5.12-2.427a12.161 12.161 0 0 1 2.8-.32C25.333 5.333 30.667 16 30.667 16a24.646 24.646 0 0 1-2.88 4.253m-8.96-1.426a4.003 4.003 0 0 1-5.755.102 3.994 3.994 0 0 1-.824-4.457c.219-.491.534-.932.927-1.298M1.333 1.333l29.333 29.333" style="stroke:var(--color1, #efede8)"/></symbol><symbol id="icon-eye" viewBox="0 0 32 32"><path fill="none" stroke="#efede8" stroke-linecap="round" stroke-linejoin="round" stroke-width="2.88" d="M1.333 16S6.666 5.333 16 5.333 30.667 16 30.667 16 25.334 26.667 16 26.667C6.667 26.667 1.333 16 1.333 16z" style="stroke:var(--color1, #efede8)"/><path fill="none" stroke="#efede8" stroke-linecap="round" stroke-linejoin="round" stroke-width="2.88" d="M16 20a4 4 0 1 0 0-8 4 4 0 0 0 0 8z" style="stroke:var(--color1, #efede8)"/></symbol><symbol id="icon-logo-mob" viewBox="0 0 89 32"><path fill="#e6533c" d="M86.33 13.714a2.285 2.285 0 1 1 0 4.572h-1.582a2.462 2.462 0 0 0-2.462 2.462v4.22a2.462 2.462 0 0 1-2.462 2.462h-1.583c-1.262 0-2.286 1.023-2.286 2.286s-1.023 2.286-2.286 2.286h-4.747a2.462 2.462 0 0 1-2.462-2.462v-8.791a2.462 2.462 0 0 0-2.462-2.462H24.613a2.462 2.462 0 0 0-2.462 2.462v8.791a2.462 2.462 0 0 1-2.462 2.462h-4.747c-1.262 0-2.286-1.023-2.286-2.286s-1.023-2.286-2.286-2.286H8.788a2.462 2.462 0 0 1-2.462-2.462v-4.22a2.462 2.462 0 0 0-2.462-2.462H2.282a2.286 2.286 0 0 1 0-4.572h1.582a2.462 2.462 0 0 0 2.462-2.462v-4.22A2.462 2.462 0 0 1 8.788 4.57h1.582c1.262 0 2.286-1.023 2.286-2.286s1.023-2.286 2.286-2.286h4.747a2.462 2.462 0 0 1 2.462 2.462v8.791a2.462 2.462 0 0 0 2.462 2.462h39.385a2.462 2.462 0 0 0 2.462-2.462V2.46a2.462 2.462 0 0 1 2.462-2.462h4.747c1.262 0 2.286 1.023 2.286 2.286s1.023 2.286 2.286 2.286h1.583a2.462 2.462 0 0 1 2.462 2.462v4.22a2.462 2.462 0 0 0 2.462 2.462h1.582z" style="fill:var(--color2, #e6533c)"/></symbol><symbol id="icon-search" viewBox="0 0 32 32"><path fill="none" stroke="#efede8" stroke-linecap="round" stroke-linejoin="round" stroke-width="2.667" d="M14.667 25.333c5.891 0 10.667-4.776 10.667-10.667S20.558 3.999 14.667 3.999 4 8.775 4 14.666s4.776 10.667 10.667 10.667zM28 28l-5.8-5.8" style="stroke:var(--color1, #efede8)"/></symbol><symbol id="icon-logo" viewBox="0 0 83 32"><path fill="#e6533c" d="M80.941 13.714c1.04 0 1.882.843 1.882 1.882v.807c0 1.04-.843 1.882-1.882 1.882H78.79a1.883 1.883 0 0 0-1.882 1.882v5.378c0 1.04-.843 1.882-1.882 1.882h-2.151c-1.04 0-1.882.843-1.882 1.882v.807c0 1.04-.843 1.882-1.882 1.882h-5.109a1.882 1.882 0 0 1-1.882-1.882v-9.95c0-1.04-.843-1.882-1.882-1.882H22.591c-1.04 0-1.882.843-1.882 1.882v9.95c0 1.04-.843 1.882-1.882 1.882h-5.109a1.882 1.882 0 0 1-1.882-1.882v-.807c0-1.04-.843-1.882-1.882-1.882H7.803a1.882 1.882 0 0 1-1.882-1.882v-5.378c0-1.04-.843-1.882-1.882-1.882H1.888a1.882 1.882 0 0 1-1.882-1.882v-.807c0-1.04.843-1.882 1.882-1.882h2.151c1.04 0 1.882-.843 1.882-1.882V6.454c0-1.04.843-1.882 1.882-1.882h2.151c1.04 0 1.882-.843 1.882-1.882v-.807c0-1.04.843-1.882 1.882-1.882h5.109c1.04 0 1.882.843 1.882 1.882v9.95c0 1.04.843 1.882 1.882 1.882h37.647c1.04 0 1.882-.843 1.882-1.882v-9.95c0-1.04.843-1.882 1.882-1.882h5.109c1.04 0 1.882.843 1.882 1.882v.807c0 1.04.843 1.882 1.882 1.882h2.151c1.04 0 1.882.843 1.882 1.882v5.378c0 1.04.843 1.882 1.882 1.882h2.151z" style="fill:var(--color2, #e6533c)"/></symbol><symbol id="icon-log-out" viewBox="0 0 32 32"><path fill="none" stroke="#e6533c" stroke-linecap="round" stroke-linejoin="round" stroke-width="2.4" d="M12 4h-1.6c-2.24 0-3.36 0-4.216.436a3.991 3.991 0 0 0-1.748 1.748C4 7.04 4 8.16 4 10.4v11.2c0 2.24 0 3.36.436 4.216a3.996 3.996 0 0 0 1.748 1.748C7.04 28 8.16 28 10.4 28H12M21.333 22.667 28 16m0 0-6.667-6.667M28 16H12" style="stroke:var(--color2, #e6533c)"/></symbol><symbol id="icon-bubble" viewBox="0 0 32 32"><path fill="#ef8964" d="M20.793 16.346c3.778 0 6.84-3.062 6.84-6.84s-3.062-6.84-6.84-6.84-6.84 3.062-6.84 6.84 3.062 6.84 6.84 6.84zM8.476 25.919a4.107 4.107 0 1 0 0-8.215 4.107 4.107 0 0 0 0 8.215zM22.151 29.332a3.413 3.413 0 1 0 0-6.826 3.413 3.413 0 0 0 0 6.826z" style="fill:var(--color3, #ef8964)"/></symbol><symbol id="icon-calories" viewBox="0 0 32 32"><path fill="#ef8964" d="M16.001 22.291c-.946.72-2.898 2.5-2.898 4.925 0 1.601 1.3 2.904 2.897 2.904s2.897-1.303 2.897-2.904c0-2.297-1.954-4.161-2.895-4.925z" style="fill:var(--color3, #ef8964)"/><path fill="#ef8964" d="M22.789 5.57a.936.936 0 0 0-1.34-.064l-4.412 4.117V1c0-.722-.87-1.261-1.522-.867-.123.075-3.055 1.865-6.017 5.116-3.602 3.953-6.055 8.766-6.055 14.164C3.443 26.354 9.076 32 16 32c-2.631 0-4.772-2.146-4.772-4.784 0-4.262 4.138-6.786 4.314-6.891a.938.938 0 0 1 .996.022c.173.114 4.234 2.838 4.234 6.869C20.772 29.854 18.631 32 16 32c6.924 0 12.557-5.647 12.557-12.587 0-5.241-2.313-9.938-5.767-13.843z" style="fill:var(--color3, #ef8964)"/></symbol><symbol id="icon-checkbox-green" viewBox="0 0 32 32"><path fill="#3cbf61" d="M16 29.333C8.636 29.333 2.667 23.364 2.667 16S8.636 2.667 16 2.667 29.333 8.636 29.333 16 23.364 29.333 16 29.333zm-1.541-7.353 9.427-9.428-1.885-1.885-7.541 7.543-3.772-3.772-1.885 1.885 5.657 5.657z" style="fill:var(--color4, #3cbf61)"/></symbol><symbol id="icon-checkbox-red" viewBox="0 0 32 32"><path fill="#d80027" d="M16 29.333C8.636 29.333 2.667 23.364 2.667 16S8.636 2.667 16 2.667 29.333 8.636 29.333 16 23.364 29.333 16 29.333zm-1.541-7.353 9.427-9.428-1.885-1.885-7.541 7.543-3.772-3.772-1.885 1.885 5.657 5.657z" style="fill:var(--color1, #d80027)"/></symbol><symbol id="icon-chevron-left" viewBox="0 0 32 32"><path fill="#efede8" d="m21.086 1.086 2.828 2.828L12.328 15.5l11.586 11.586-2.828 2.828L6.672 15.5 21.086 1.086z" opacity=".2" style="fill:var(--color1, #efede8)"/></symbol><symbol id="icon-chevron-right" viewBox="0 0 32 32"><path fill="#efede8" d="m10.914 29.914-2.828-2.828L19.672 15.5 8.086 3.914l2.828-2.828L25.328 15.5 10.914 29.914z" style="fill:var(--color1, #efede8)"/></symbol><symbol id="icon-apple" viewBox="0 0 32 32"><path fill="#ef8964" d="M19.454 4.758a.794.794 0 0 0 .479-.399.798.798 0 0 0-.672-1.166.798.798 0 0 0-.314.048c-1.501.499-2.435 1.731-2.986 3.051a8.02 8.02 0 0 0-.203.542 6.394 6.394 0 0 0-1.138-1.541 6.39 6.39 0 0 0-4.705-1.872 1.74 1.74 0 0 0-1.694 1.694 6.39 6.39 0 0 0 1.872 4.705l.05.048a6.401 6.401 0 0 0-5.027 5.747l-.01.118a13.6 13.6 0 0 0 1.616 7.597l.576 1.053a.979.979 0 0 0 .051.08l1.6 2.243a4.301 4.301 0 0 0 3.142 1.785 4.297 4.297 0 0 0 3.392-1.244.743.743 0 0 1 .516-.214.72.72 0 0 1 .516.214 4.299 4.299 0 0 0 5.16.698 4.28 4.28 0 0 0 1.374-1.239l1.6-2.242a.625.625 0 0 0 .051-.082l.574-1.053a13.598 13.598 0 0 0 1.616-7.597l-.008-.118a6.386 6.386 0 0 0-2.442-4.533 6.404 6.404 0 0 0-4.99-1.268l-2.651.442c.016-1.09.208-2.315.638-3.349.448-1.08 1.114-1.848 2.013-2.149h.002zm-8.4 9.6a1.955 1.955 0 0 0-1.147.968c-.296.557-.499 1.475-.312 2.974a.8.8 0 0 1-1.587.198c-.213-1.702-.016-2.984.488-3.926a3.551 3.551 0 0 1 2.053-1.733.791.791 0 0 1 .858.235.814.814 0 0 1 .194.581.791.791 0 0 1-.274.548.814.814 0 0 1-.271.155z" style="fill:var(--color3, #ef8964)"/></symbol><symbol id="icon-user" viewBox="0 0 32 32"><path fill="#efede8" d="M16 5.333a5.332 5.332 0 1 1 0 10.665 5.332 5.332 0 0 1 0-10.665zm0 21.334s10.667 0 10.667-2.667c0-3.2-5.2-6.667-10.667-6.667S5.333 20.8 5.333 24C5.333 26.667 16 26.667 16 26.667z" opacity=".1" style="fill:var(--color1, #efede8)"/></symbol><symbol id="icon-calendar-orange" viewBox="0 0 32 32"><path fill="none" stroke="#ef8964" stroke-linecap="round" stroke-linejoin="round" stroke-width="2.667" d="M25.333 5.333H6.666A2.667 2.667 0 0 0 3.999 8v18.667a2.667 2.667 0 0 0 2.667 2.667h18.667A2.667 2.667 0 0 0 28 26.667V8a2.667 2.667 0 0 0-2.667-2.667zM21.333 2.667V8M10.667 2.667V8M4 13.333h24" style="stroke:var(--color3, #ef8964)"/></symbol><symbol id="icon-man-run" viewBox="0 0 32 32"><path fill="#efa082" d="M32 16c0 8.837-7.163 16-16 16S0 24.837 0 16 7.163 0 16 0s16 7.163 16 16z" style="fill:var(--color5, #efa082)"/><path fill="#efede8" d="M25.098 11.634a.79.79 0 0 0-1.111-.099l-2.188 1.838-1.006-2.493a.757.757 0 0 0-.153-.241 2.148 2.148 0 0 0-1.055-1.078 2.158 2.158 0 0 0-.655-.174c-.049-.025-.093-.059-.148-.076l-3.85-1.073a.792.792 0 0 0-.611.083.77.77 0 0 0-.479.448l-1.45 3.728a.791.791 0 0 0 .451 1.022.79.79 0 0 0 1.021-.452l1.225-3.148 1.754.488c-.043.069-.089.134-.124.208l-2.248 4.873c-.032.072-.05.144-.073.218l-2.732 4.581-4.572 1.529a1.168 1.168 0 0 0 1.387 1.879l4.679-1.611c.143-.104.247-.24.326-.387.059-.062.126-.112.171-.189l1.629-2.731 2.891 2.464-3.094 3.486a1.167 1.167 0 0 0 1.747 1.547l3.861-4.349c.12-.134.192-.289.24-.451.029-.088.029-.179.036-.27 0-.046.017-.088.014-.131a1.143 1.143 0 0 0-.401-.849l-2.661-2.269c.192-.183.355-.4.473-.655l1.724-3.733.552 1.471a.742.742 0 0 0 .159.366.754.754 0 0 0 .303.211c.012.006.025.007.039.01a.738.738 0 0 0 .489.024l.003-.001c.024-.006.049-.001.073-.012a.8.8 0 0 0 .311-.226l3.14-2.665c.334-.281.193-.777-.088-1.111zM21.126 9.735a2.201 2.201 0 1 0 0-4.402 2.201 2.201 0 0 0 0 4.402z" style="fill:var(--color1, #efede8)"/></symbol><symbol id="icon-next" viewBox="0 0 32 32"><path fill="none" stroke="--light-grey-color: rgba(239, 237, 232, 0.5)" stroke-linecap="round" stroke-linejoin="round" stroke-width="2.4" d="M18.133 22.667 24.8 16m0 0-6.667-6.667M24.8 16h-16" style="stroke:var(--light-grey-color: rgba(239, 237, 232, 0.5))"/></symbol><symbol id="icon-pause" viewBox="0 0 32 32"><path fill="#e6533c" stroke="#e6533c" stroke-linecap="round" stroke-linejoin="round" d="M4 10.4c0-2.24 0-3.36.436-4.216a3.991 3.991 0 0 1 1.748-1.748C7.04 4 8.16 4 10.4 4h11.2c2.24 0 3.36 0 4.216.436a3.996 3.996 0 0 1 1.748 1.748C28 7.04 28 8.16 28 10.4v11.2c0 2.24 0 3.36-.436 4.216a4.001 4.001 0 0 1-1.748 1.748C24.96 28 23.84 28 21.6 28H10.4c-2.24 0-3.36 0-4.216-.436a3.996 3.996 0 0 1-1.748-1.748C4 24.96 4 23.84 4 21.6V10.4z" style="fill:var(--color2, #e6533c);stroke:var(--color2, #e6533c)"/><path fill="none" stroke="#efede8" stroke-linecap="round" stroke-linejoin="round" stroke-width="1.3" d="M12.666 20v-8m6.667 8v-8" style="stroke:var(--color1, #efede8)"/></symbol><symbol id="icon-play" viewBox="0 0 32 32"><path fill="#e6533c" stroke="#e6533c" stroke-linecap="round" stroke-linejoin="round" d="M4 10.4c0-2.24 0-3.36.436-4.216a3.991 3.991 0 0 1 1.748-1.748C7.04 4 8.16 4 10.4 4h11.2c2.24 0 3.36 0 4.216.436a3.996 3.996 0 0 1 1.748 1.748C28 7.04 28 8.16 28 10.4v11.2c0 2.24 0 3.36-.436 4.216a4.001 4.001 0 0 1-1.748 1.748C24.96 28 23.84 28 21.6 28H10.4c-2.24 0-3.36 0-4.216-.436a3.996 3.996 0 0 1-1.748-1.748C4 24.96 4 23.84 4 21.6V10.4z" style="fill:var(--color2, #e6533c);stroke:var(--color2, #e6533c)"/><path fill="#efede8" stroke="#efede8" stroke-linecap="round" stroke-linejoin="round" stroke-width="1.3" d="M11.917 10.75 20.084 16l-8.167 5.25v-10.5z" style="fill:var(--color1, #efede8);stroke:var(--color1, #efede8)"/></symbol><symbol id="icon-running" viewBox="0 0 32 32"><path fill="#ef8964" d="M29.647 9.451a1.185 1.185 0 0 0-1.667-.149l-3.282 2.757-1.509-3.739a1.163 1.163 0 0 0-.229-.362 3.215 3.215 0 0 0-1.582-1.617 3.24 3.24 0 0 0-.982-.262c-.073-.038-.139-.088-.222-.114l-5.775-1.61a1.19 1.19 0 0 0-.917.125 1.155 1.155 0 0 0-.719.672l-2.175 5.592a1.188 1.188 0 0 0 .676 1.534 1.187 1.187 0 0 0 1.532-.678l1.837-4.722 2.63.731c-.064.104-.133.201-.185.312l-3.372 7.309c-.049.107-.075.217-.109.328l-4.098 6.871-6.859 2.294a1.751 1.751 0 0 0 2.081 2.819l7.018-2.417c.215-.156.371-.36.489-.58.088-.094.189-.168.256-.284l2.443-4.096 4.337 3.696-4.641 5.23a1.75 1.75 0 1 0 2.622 2.32l5.791-6.524a1.72 1.72 0 0 0 .36-.676c.043-.132.043-.269.054-.406 0-.069.026-.132.021-.196a1.72 1.72 0 0 0-.601-1.274l-3.991-3.403c.288-.274.532-.6.709-.983l2.585-5.599.828 2.206c.035.196.1.388.239.549.125.149.284.248.454.317.017.009.038.01.059.016.107.038.216.075.329.08.133.012.269-.005.405-.043l.005-.002c.036-.009.073-.002.109-.017a1.17 1.17 0 0 0 .466-.34l4.71-3.998c.501-.421.289-1.166-.132-1.667zM23.689 6.602a3.301 3.301 0 1 0 0-6.602 3.301 3.301 0 0 0 0 6.602z" style="fill:var(--color3, #ef8964)"/></symbol><symbol id="icon-settings" viewBox="0 0 32 32"><path fill="none" stroke="#efede8" stroke-linecap="round" stroke-linejoin="round" stroke-width="2.286" d="M16 20a4 4 0 1 0 0-8 4 4 0 0 0 0 8z" style="stroke:var(--color1, #efede8)"/><path fill="none" stroke="#efede8" stroke-linecap="round" stroke-linejoin="round" stroke-width="2.286" d="M24.969 19.636a2.005 2.005 0 0 0 .4 2.206l.073.073a2.422 2.422 0 0 1 0 3.43 2.432 2.432 0 0 1-1.715.711 2.42 2.42 0 0 1-1.715-.711l-.073-.073a2.003 2.003 0 0 0-2.206-.4 1.997 1.997 0 0 0-1.213 1.83v.206a2.421 2.421 0 0 1-2.424 2.424 2.421 2.421 0 0 1-2.424-2.424v-.109a1.996 1.996 0 0 0-1.309-1.831 2.005 2.005 0 0 0-2.206.4l-.073.073a2.428 2.428 0 0 1-3.43 0 2.422 2.422 0 0 1 0-3.43l.073-.073a2.004 2.004 0 0 0 .4-2.206c-.154-.358-.409-.664-.734-.88s-.706-.331-1.096-.332h-.206a2.421 2.421 0 0 1-2.424-2.424 2.421 2.421 0 0 1 2.424-2.424H5.2a1.996 1.996 0 0 0 1.831-1.309 1.997 1.997 0 0 0-.4-2.206l-.073-.073a2.422 2.422 0 0 1 0-3.43 2.422 2.422 0 0 1 3.43 0l.073.073a2.004 2.004 0 0 0 2.206.4h.097a1.997 1.997 0 0 0 1.213-1.83v-.206a2.421 2.421 0 0 1 2.424-2.424 2.421 2.421 0 0 1 2.424 2.424V5.2a2.005 2.005 0 0 0 1.212 1.83 1.997 1.997 0 0 0 2.206-.4l.073-.073a2.432 2.432 0 0 1 1.715-.711 2.42 2.42 0 0 1 1.715.711 2.428 2.428 0 0 1 0 3.43l-.073.073a2.004 2.004 0 0 0-.4 2.206v.097c.154.358.409.664.734.88s.706.331 1.096.332h.206a2.421 2.421 0 0 1 2.424 2.424 2.421 2.421 0 0 1-2.424 2.424H26.8a1.997 1.997 0 0 0-1.83 1.213z" style="stroke:var(--color1, #efede8)"/></symbol><symbol id="icon-trash" viewBox="0 0 32 32"><path fill="none" stroke="#ef8964" stroke-linecap="round" stroke-linejoin="round" stroke-width="2.4" d="M12 4h8m-6.667 10v6.667M18.667 14v6.667M4 8h24m-2.667 0-.935 14.026c-.14 2.104-.21 3.156-.665 3.954a4.007 4.007 0 0 1-1.731 1.62c-.826.4-1.881.4-3.99.4h-4.025c-2.109 0-3.163 0-3.99-.4a3.996 3.996 0 0 1-1.731-1.62c-.455-.798-.525-1.85-.665-3.954L6.666 8" style="stroke:var(--color3, #ef8964)"/></symbol><symbol id="icon-close" viewBox="0 0 32 32"><path fill="none" stroke="#e6533c" stroke-linecap="round" stroke-linejoin="round" stroke-width="3.556" d="M24 8 8 24M8 8l16 16" style="stroke:var(--color2, #e6533c)"/></symbol><symbol id="icon-calendar" viewBox="0 0 32 32"><path fill="none" stroke="#efede8" stroke-linecap="round" stroke-linejoin="round" stroke-width="2.667" d="M25.333 5.333H6.666A2.667 2.667 0 0 0 3.999 8v18.667a2.667 2.667 0 0 0 2.667 2.667h18.667A2.667 2.667 0 0 0 28 26.667V8a2.667 2.667 0 0 0-2.667-2.667zM21.333 2.667V8M10.667 2.667V8M4 13.333h24" style="stroke:var(--color1, #efede8)"/></symbol><symbol id="icon-dumbbell" viewBox="0 0 32 32"><path fill="#ef8964" d="M5.2 8H2.8c-.665 0-1.2.535-1.2 1.2v5.2H.4c-.22 0-.4.18-.4.4v2.4c0 .22.18.4.4.4h1.2v5.2c0 .665.535 1.2 1.2 1.2h2.4c.665 0 1.2-.535 1.2-1.2V9.2c0-.665-.535-1.2-1.2-1.2zm26.4 6.4h-1.2V9.2c0-.665-.535-1.2-1.2-1.2h-2.4c-.665 0-1.2.535-1.2 1.2v13.6c0 .665.535 1.2 1.2 1.2h2.4c.665 0 1.2-.535 1.2-1.2v-5.2h1.2c.22 0 .4-.18.4-.4v-2.4c0-.22-.18-.4-.4-.4zm-8.8-9.6h-2.4c-.665 0-1.2.535-1.2 1.2v8.4h-6.4V6c0-.665-.535-1.2-1.2-1.2H9.2C8.535 4.8 8 5.335 8 6v20c0 .665.535 1.2 1.2 1.2h2.4c.665 0 1.2-.535 1.2-1.2v-8.4h6.4V26c0 .665.535 1.2 1.2 1.2h2.4c.665 0 1.2-.535 1.2-1.2V6c0-.665-.535-1.2-1.2-1.2z" style="fill:var(--color3, #ef8964)"/></symbol><symbol id="icon-fork" viewBox="0 0 32 32"><path fill="#ef8964" d="M24 4a1.332 1.332 0 0 1 1.324 1.177l.009.156v21.333a1.333 1.333 0 0 1-2.657.157l-.009-.156V20h-1.333a1.333 1.333 0 0 1-1.324-1.177l-.009-.156v-8c0-2.947 2-6.667 4-6.667zm-8 0a1.332 1.332 0 0 1 1.324 1.177l.009.156V12a5.333 5.333 0 0 1-4 5.165v9.501a1.336 1.336 0 0 1-2.189 1.022 1.332 1.332 0 0 1-.468-.865l-.009-.156v-9.501a5.331 5.331 0 0 1-3.994-4.89l-.007-.275V5.334a1.336 1.336 0 0 1 2.189-1.021c.261.219.428.528.468.865l.009.156v6.667a2.665 2.665 0 0 0 1.333 2.309V5.334a1.336 1.336 0 0 1 2.189-1.021c.261.219.428.528.468.865l.009.156.001 8.976a2.664 2.664 0 0 0 1.323-2.084l.009-.225V5.334A1.335 1.335 0 0 1 15.998 4z" style="fill:var(--color3, #ef8964)"/></symbol><symbol id="icon-warning" viewBox="0 0 32 32"><path fill="#efa082" d="M32 16c0 8.837-7.163 16-16 16S0 24.837 0 16 7.163 0 16 0s16 7.163 16 16z" style="fill:var(--color5, #efa082)"/><path fill="none" stroke="#efede8" stroke-linecap="round" stroke-linejoin="round" stroke-width="2.667" d="M16 25.333v.013M16 20V6.667" style="stroke:var(--color1, #efede8)"/></symbol><symbol id="icon-plus" viewBox="0 0 31 32"><path fill="#e6533c" d="m11.61 1.088 3.574 1.033c.258.075.532.075.791.002l3.68-1.048a1.435 1.435 0 0 1 1.651.691l1.91 3.487c.128.234.319.428.551.559l3.037 1.72c.587.333.863 1.03.662 1.675l-1.052 3.374a1.432 1.432 0 0 0-.001.85l1.062 3.445a1.435 1.435 0 0 1-.647 1.661l-3.385 1.979c-.231.135-.42.332-.544.569l-1.61 3.05c-.312.59-.989.888-1.634.717l-3.705-.978a1.438 1.438 0 0 0-.737.001l-3.592.963a1.434 1.434 0 0 1-1.657-.749l-1.605-3.243a1.43 1.43 0 0 0-.622-.635l-3.28-1.712a1.435 1.435 0 0 1-.719-1.653l.956-3.465c.068-.245.069-.504.003-.75l-.981-3.69a1.434 1.434 0 0 1 .689-1.622l3.369-1.874c.245-.136.445-.341.574-.59L9.94 1.802a1.436 1.436 0 0 1 1.67-.715z" style="fill:var(--color2, #e6533c)"/><path fill="none" stroke="#000" stroke-width=".762" d="m11.61 1.088 3.574 1.033c.258.075.532.075.791.002l3.68-1.048a1.435 1.435 0 0 1 1.651.691l1.91 3.487c.128.234.319.428.551.559l3.037 1.72c.587.333.863 1.03.662 1.675l-1.052 3.374a1.432 1.432 0 0 0-.001.85l1.062 3.445a1.435 1.435 0 0 1-.647 1.661l-3.385 1.979c-.231.135-.42.332-.544.569l-1.61 3.05c-.312.59-.989.888-1.634.717l-3.705-.978a1.438 1.438 0 0 0-.737.001l-3.592.963a1.434 1.434 0 0 1-1.657-.749l-1.605-3.243a1.43 1.43 0 0 0-.622-.635l-3.28-1.712a1.435 1.435 0 0 1-.719-1.653l.956-3.465c.068-.245.069-.504.003-.75l-.981-3.69a1.434 1.434 0 0 1 .689-1.622l3.369-1.874c.245-.136.445-.341.574-.59L9.94 1.802a1.436 1.436 0 0 1 1.67-.715z" style="stroke:var(--color6, #000)"/><path fill="none" stroke="#efede8" stroke-linecap="round" stroke-linejoin="round" stroke-width="1.524" d="M15.619 8.952v8M11.619 12.952h8" style="stroke:var(--color1, #efede8)"/></symbol><symbol id="icon-circle-green" viewBox="0 0 32 32"><path fill="#419b09" style="fill: var(--color1, #419b09)" d="M16 0c8.837 0 16 7.163 16 16s-7.163 16-16 16c-8.837 0-16-7.163-16-16s7.163-16 16-16z"></path></symbol><symbol id="icon-circle-red" viewBox="0 0 32 32"><path fill="#e9101d" style="fill: var(--color2, #e9101d)" d="M16 0c8.837 0 16 7.163 16 16s-7.163 16-16 16c-8.837 0-16-7.163-16-16s7.163-16 16-16z"></path></symbol></defs></svg>