<svg aria-hidden="true" style="position: absolute; width: 0; height: 0; overflow: hidden;" version="1.1" xmlns="http://www.w3.org/2000/svg" xmlns:xlink="http://www.w3.org/1999/xlink">
<defs>
<symbol id="icon-log-out" viewBox="0 0 32 32">
<path fill="none" stroke="#e6533c" style="stroke: var(--color1, #e6533c)" stroke-linejoin="round" stroke-linecap="round" stroke-miterlimit="4" stroke-width="2.4" d="M12 4h-1.6c-2.24 0-3.36 0-4.216 0.436-0.753 0.383-1.365 0.995-1.748 1.748-0.436 0.856-0.436 1.976-0.436 4.216v11.2c0 2.24 0 3.36 0.436 4.216 0.383 0.753 0.995 1.364 1.748 1.748 0.856 0.436 1.976 0.436 4.216 0.436h1.6"></path>
<path fill="none" stroke="#e6533c" style="stroke: var(--color1, #e6533c)" stroke-linejoin="round" stroke-linecap="round" stroke-miterlimit="4" stroke-width="2.4" d="M21.333 22.667l6.667-6.667M28 16l-6.667-6.667M28 16h-16"></path>
</symbol>
<symbol id="icon-calendar" viewBox="0 0 32 32">
<path fill="none" stroke="#efede8" style="stroke: var(--color2, #efede8)" stroke-linejoin="round" stroke-linecap="round" stroke-miterlimit="4" stroke-width="2.6667" d="M25.333 5.333h-18.667c-1.473 0-2.667 1.194-2.667 2.667v18.667c0 1.473 1.194 2.667 2.667 2.667h18.667c1.473 0 2.667-1.194 2.667-2.667v-18.667c0-1.473-1.194-2.667-2.667-2.667z"></path>
<path fill="none" stroke="#efede8" style="stroke: var(--color2, #efede8)" stroke-linejoin="round" stroke-linecap="round" stroke-miterlimit="4" stroke-width="2.6667" d="M21.333 2.667v5.333"></path>
<path fill="none" stroke="#efede8" style="stroke: var(--color2, #efede8)" stroke-linejoin="round" stroke-linecap="round" stroke-miterlimit="4" stroke-width="2.6667" d="M10.667 2.667v5.333"></path>
<path fill="none" stroke="#efede8" style="stroke: var(--color2, #efede8)" stroke-linejoin="round" stroke-linecap="round" stroke-miterlimit="4" stroke-width="2.6667" d="M4 13.333h24"></path>
</symbol>
<symbol id="icon-dumbbell" viewBox="0 0 32 32">
<path fill="#ef8964" style="fill: var(--color3, #ef8964)" d="M5.2 8h-2.4c-0.665 0-1.2 0.535-1.2 1.2v5.2h-1.2c-0.22 0-0.4 0.18-0.4 0.4v2.4c0 0.22 0.18 0.4 0.4 0.4h1.2v5.2c0 0.665 0.535 1.2 1.2 1.2h2.4c0.665 0 1.2-0.535 1.2-1.2v-13.6c0-0.665-0.535-1.2-1.2-1.2zM31.6 14.4h-1.2v-5.2c0-0.665-0.535-1.2-1.2-1.2h-2.4c-0.665 0-1.2 0.535-1.2 1.2v13.6c0 0.665 0.535 1.2 1.2 1.2h2.4c0.665 0 1.2-0.535 1.2-1.2v-5.2h1.2c0.22 0 0.4-0.18 0.4-0.4v-2.4c0-0.22-0.18-0.4-0.4-0.4zM22.8 4.8h-2.4c-0.665 0-1.2 0.535-1.2 1.2v8.4h-6.4v-8.4c0-0.665-0.535-1.2-1.2-1.2h-2.4c-0.665 0-1.2 0.535-1.2 1.2v20c0 0.665 0.535 1.2 1.2 1.2h2.4c0.665 0 1.2-0.535 1.2-1.2v-8.4h6.4v8.4c0 0.665 0.535 1.2 1.2 1.2h2.4c0.665 0 1.2-0.535 1.2-1.2v-20c0-0.665-0.535-1.2-1.2-1.2z"></path>
</symbol>
<symbol id="icon-fork" viewBox="0 0 32 32">
<path fill="#ef8964" style="fill: var(--color3, #ef8964)" d="M24 4c0.327 0 0.642 0.12 0.886 0.337s0.4 0.516 0.438 0.84l0.009 0.156v21.333c-0 0.34-0.131 0.667-0.364 0.914s-0.552 0.396-0.891 0.416c-0.339 0.020-0.673-0.090-0.934-0.308s-0.428-0.528-0.468-0.865l-0.009-0.156v-6.667h-1.333c-0.327 0-0.642-0.12-0.886-0.337s-0.4-0.516-0.438-0.84l-0.009-0.156v-8c0-2.947 2-6.667 4-6.667zM16 4c0.327 0 0.642 0.12 0.886 0.337s0.4 0.516 0.438 0.84l0.009 0.156v6.667c-0 1.183-0.393 2.331-1.117 3.266s-1.738 1.603-2.883 1.899v9.501c-0 0.34-0.13 0.667-0.364 0.914s-0.552 0.396-0.891 0.416c-0.339 0.020-0.673-0.090-0.934-0.308s-0.428-0.528-0.468-0.865l-0.009-0.156v-9.501c-1.099-0.284-2.079-0.912-2.798-1.791s-1.137-1.965-1.196-3.099l-0.007-0.275v-6.667c0-0.34 0.13-0.667 0.364-0.914s0.552-0.396 0.891-0.416c0.339-0.020 0.673 0.090 0.934 0.309s0.428 0.528 0.468 0.865l0.009 0.156v6.667c0 0.468 0.123 0.928 0.357 1.333s0.571 0.742 0.976 0.976v-8.976c0-0.34 0.13-0.667 0.364-0.914s0.552-0.396 0.891-0.416c0.339-0.020 0.673 0.090 0.934 0.309s0.428 0.528 0.468 0.865l0.009 0.156 0.001 8.976c0.372-0.215 0.687-0.517 0.917-0.88s0.37-0.776 0.406-1.204l0.009-0.225v-6.667c0-0.354 0.14-0.693 0.391-0.943s0.589-0.391 0.943-0.391z"></path>
</symbol>
<symbol id="icon-warning" viewBox="0 0 32 32">
<path fill="#efa082" style="fill: var(--color4, #efa082)" d="M32 16c0 8.837-7.163 16-16 16s-16-7.163-16-16c0-8.837 7.163-16 16-16s16 7.163 16 16z"></path>
<path fill="none" stroke="#efede8" style="stroke: var(--color2, #efede8)" stroke-linejoin="round" stroke-linecap="round" stroke-miterlimit="4" stroke-width="2.6667" d="M16 25.333v0.013M16 20v-13.333"></path>
</symbol>
<symbol id="icon-plus" viewBox="0 0 31 32">
<path fill="#e6533c" style="fill: var(--color1, #e6533c)" d="M11.61 1.088l3.574 1.033c0.258 0.075 0.532 0.075 0.791 0.002l3.68-1.048c0.644-0.183 1.329 0.103 1.651 0.691l1.91 3.487c0.128 0.234 0.319 0.428 0.551 0.559l3.037 1.72c0.587 0.333 0.863 1.030 0.662 1.675l-1.052 3.374c-0.086 0.277-0.087 0.573-0.001 0.85l1.062 3.445c0.196 0.637-0.072 1.325-0.647 1.661l-3.385 1.979c-0.231 0.135-0.42 0.332-0.544 0.569l-1.61 3.050c-0.312 0.59-0.989 0.888-1.634 0.717l-3.705-0.978c-0.242-0.064-0.496-0.063-0.737 0.001l-3.592 0.963c-0.66 0.177-1.354-0.136-1.657-0.749l-1.605-3.243c-0.135-0.272-0.352-0.495-0.622-0.635l-3.28-1.712c-0.599-0.313-0.898-1.001-0.719-1.653l0.956-3.465c0.068-0.245 0.069-0.504 0.003-0.75l-0.981-3.69c-0.169-0.635 0.115-1.303 0.689-1.622l3.369-1.874c0.245-0.136 0.445-0.341 0.574-0.59l1.592-3.053c0.316-0.605 1.014-0.904 1.67-0.715z"></path>
<path fill="none" stroke="#000" style="stroke: var(--color5, #000)" stroke-linejoin="miter" stroke-linecap="butt" stroke-miterlimit="4" stroke-width="0.7619" d="M11.61 1.088l3.574 1.033c0.258 0.075 0.532 0.075 0.791 0.002l3.68-1.048c0.644-0.183 1.329 0.103 1.651 0.691l1.91 3.487c0.128 0.234 0.319 0.428 0.551 0.559l3.037 1.72c0.587 0.333 0.863 1.030 0.662 1.675l-1.052 3.374c-0.086 0.277-0.087 0.573-0.001 0.85l1.062 3.445c0.196 0.637-0.072 1.325-0.647 1.661l-3.385 1.979c-0.231 0.135-0.42 0.332-0.544 0.569l-1.61 3.050c-0.312 0.59-0.989 0.888-1.634 0.717l-3.705-0.978c-0.242-0.064-0.496-0.063-0.737 0.001l-3.592 0.963c-0.66 0.177-1.354-0.136-1.657-0.749l-1.605-3.243c-0.135-0.272-0.352-0.495-0.622-0.635l-3.28-1.712c-0.599-0.313-0.898-1.001-0.719-1.653l0.956-3.465c0.068-0.245 0.069-0.504 0.003-0.75l-0.981-3.69c-0.169-0.635 0.115-1.303 0.689-1.622l3.369-1.874c0.245-0.136 0.445-0.341 0.574-0.59l1.592-3.053c0.316-0.605 1.014-0.904 1.67-0.715z"></path>
<path fill="none" stroke="#efede8" style="stroke: var(--color2, #efede8)" stroke-linejoin="round" stroke-linecap="round" stroke-miterlimit="4" stroke-width="1.5238" d="M15.619 8.952v8"></path>
<path fill="none" stroke="#efede8" style="stroke: var(--color2, #efede8)" stroke-linejoin="round" stroke-linecap="round" stroke-miterlimit="4" stroke-width="1.5238" d="M11.619 12.952h8"></path>
</symbol>
</defs>
</svg>
